# Blender 5.1.2
# www.blender.org
mtllib head.mtl
o Cube
v 0.863720 2.309929 -1.000000
v 1.000000 2.173649 -1.000000
v 0.898992 2.305286 -1.000000
v 0.931860 2.291671 -1.000000
v 0.960085 2.270014 -1.000000
v 0.981742 2.241789 -1.000000
v 0.995356 2.208921 -1.000000
v 1.000000 0.446209 -1.000000
v 0.863720 0.309929 -1.000000
v 0.995356 0.410937 -1.000000
v 0.981742 0.378069 -1.000000
v 0.960085 0.349845 -1.000000
v 0.931860 0.328187 -1.000000
v 0.898992 0.314573 -1.000000
v 1.000000 2.173649 1.000000
v 0.863720 2.309929 1.000000
v 0.995356 2.208921 1.000000
v 0.981742 2.241789 1.000000
v 0.960085 2.270014 1.000000
v 0.931860 2.291671 1.000000
v 0.898992 2.305286 1.000000
v 0.863720 0.309929 1.000000
v 1.000000 0.446209 1.000000
v 0.898992 0.314573 1.000000
v 0.931860 0.328187 1.000000
v 0.960085 0.349845 1.000000
v 0.981742 0.378069 1.000000
v 0.995356 0.410937 1.000000
v -1.000000 2.173649 -1.000000
v -0.863720 2.309929 -1.000000
v -0.995356 2.208921 -1.000000
v -0.981742 2.241789 -1.000000
v -0.960085 2.270014 -1.000000
v -0.931860 2.291671 -1.000000
v -0.898992 2.305286 -1.000000
v -0.863720 0.309929 -1.000000
v -1.000000 0.446209 -1.000000
v -0.898992 0.314573 -1.000000
v -0.931860 0.328187 -1.000000
v -0.960085 0.349845 -1.000000
v -0.981742 0.378069 -1.000000
v -0.995356 0.410937 -1.000000
v -0.863720 2.309929 1.000000
v -1.000000 2.173649 1.000000
v -0.898992 2.305286 1.000000
v -0.931860 2.291671 1.000000
v -0.960085 2.270014 1.000000
v -0.981742 2.241789 1.000000
v -0.995356 2.208921 1.000000
v -1.000000 0.446209 1.000000
v -0.863720 0.309929 1.000000
v -0.995356 0.410937 1.000000
v -0.981742 0.378069 1.000000
v -0.960085 0.349845 1.000000
v -0.931860 0.328187 1.000000
v -0.898992 0.314573 1.000000
v -1.000000 2.173649 -1.000000
v -0.863720 2.309929 -1.000000
v -0.995356 2.208921 -1.000000
v -0.981742 2.241789 -1.000000
v -0.960085 2.270014 -1.000000
v -0.931860 2.291671 -1.000000
v -0.898992 2.305286 -1.000000
v -0.863720 0.309929 -1.000000
v -1.000000 0.446209 -1.000000
v -0.898992 0.314573 -1.000000
v -0.931860 0.328187 -1.000000
v -0.960085 0.349845 -1.000000
v -0.981742 0.378069 -1.000000
v -0.995356 0.410937 -1.000000
v -0.863720 2.309929 1.000000
v -1.000000 2.173649 1.000000
v -0.898992 2.305286 1.000000
v -0.931860 2.291671 1.000000
v -0.960085 2.270014 1.000000
v -0.981742 2.241789 1.000000
v -0.995356 2.208921 1.000000
v -1.000000 0.446209 1.000000
v -0.863720 0.309929 1.000000
v -0.995356 0.410937 1.000000
v -0.981742 0.378069 1.000000
v -0.960085 0.349845 1.000000
v -0.931860 0.328187 1.000000
v -0.898992 0.314573 1.000000
vn 0.1305 0.9914 -0.0000
vn 0.3827 0.9239 -0.0000
vn 0.6088 0.7934 -0.0000
vn 0.7934 0.6088 -0.0000
vn 0.9239 0.3827 -0.0000
vn 0.9914 0.1305 -0.0000
vn 0.1305 -0.9914 -0.0000
vn 0.3827 -0.9239 -0.0000
vn 0.6088 -0.7934 -0.0000
vn 0.7934 -0.6088 -0.0000
vn 0.9239 -0.3827 -0.0000
vn 0.9914 -0.1305 -0.0000
vn -0.0000 -0.0000 -1.0000
vn 1.0000 -0.0000 -0.0000
vn -0.0000 1.0000 -0.0000
vn -0.0000 -1.0000 -0.0000
vn -0.0000 -0.0000 1.0000
vn -0.1305 -0.9914 -0.0000
vn -0.3827 -0.9239 -0.0000
vn -0.6088 -0.7934 -0.0000
vn -0.7934 -0.6088 -0.0000
vn -0.9239 -0.3827 -0.0000
vn -0.9914 -0.1305 -0.0000
vn -0.1305 0.9914 -0.0000
vn -0.3827 0.9239 -0.0000
vn -0.6088 0.7934 -0.0000
vn -0.7934 0.6088 -0.0000
vn -0.9239 0.3827 -0.0000
vn -0.9914 0.1305 -0.0000
vn -1.0000 -0.0000 -0.0000
vt 0.333587 0.997972
vt -0.000046 0.997972
vt -0.000046 0.995703
vt 0.333587 0.995703
vt -0.000046 0.992493
vt 0.333587 0.992493
vt -0.000046 0.988561
vt 0.333587 0.988561
vt -0.000046 0.984177
vt 0.333587 0.984177
vt -0.000046 0.979638
vt 0.333587 0.979637
vt -0.000046 0.975253
vt 0.333587 0.975253
vt -0.000079 0.666654
vt 0.333891 0.666654
vt 0.333891 0.668936
vt -0.000079 0.668936
vt 0.333891 0.672164
vt -0.000079 0.672164
vt 0.333891 0.676117
vt -0.000079 0.676117
vt 0.333891 0.680526
vt -0.000079 0.680526
vt 0.333891 0.685090
vt -0.000079 0.685090
vt 0.333891 0.689499
vt -0.000079 0.689499
vt 0.643955 0.666927
vt 0.649820 0.667699
vt 0.655285 0.669962
vt 0.659977 0.673563
vt 0.663578 0.678256
vt 0.665842 0.683721
vt 0.666614 0.689585
vt 0.666614 0.976795
vt 0.665842 0.982660
vt 0.663578 0.988125
vt 0.659977 0.992817
vt 0.655285 0.996418
vt 0.649820 0.998682
vt 0.643955 0.999454
vt 0.356745 0.999454
vt 0.350880 0.998682
vt 0.345416 0.996418
vt 0.340723 0.992817
vt 0.337122 0.988125
vt 0.334859 0.982660
vt 0.334086 0.976795
vt 0.334087 0.689585
vt 0.334859 0.683721
vt 0.337122 0.678256
vt 0.340723 0.673563
vt 0.345416 0.669962
vt 0.350881 0.667699
vt 0.356745 0.666927
vt 0.333691 0.689429
vt 0.333691 0.977334
vt -0.000152 0.977334
vt -0.000152 0.689429
vt 0.666991 1.000055
vt 0.666991 0.667054
vt 1.000087 0.667054
vt 1.000087 1.000055
vt 0.333235 0.336100
vt 0.333612 0.666540
vt 0.000051 0.666540
vt 0.000051 0.336100
vt 0.783820 1.814942
vt 0.784346 1.815716
vt 0.784836 1.817986
vt 0.785257 1.821596
vt 0.785580 1.826301
vt 0.785783 1.831780
vt 0.785853 1.837661
vt 0.785853 2.125635
vt 0.785784 2.131515
vt 0.785580 2.136994
vt 0.785257 2.141700
vt 0.784836 2.145310
vt 0.784346 2.147580
vt 0.783820 2.148354
vt 0.758050 2.148354
vt 0.757524 2.147580
vt 0.757034 2.145310
vt 0.756612 2.141700
vt 0.756289 2.136994
vt 0.756086 2.131515
vt 0.756017 2.125635
vt 0.756017 1.837661
vt 0.756086 1.831780
vt 0.756289 1.826301
vt 0.756612 1.821596
vt 0.757033 1.817986
vt 0.757524 1.815716
vt 0.758050 1.814942
vt 1.000581 0.335581
vt 0.666611 0.335581
vt 0.666611 0.337863
vt 1.000581 0.337863
vt 0.666611 0.341091
vt 1.000581 0.341091
vt 0.666611 0.345044
vt 1.000581 0.345044
vt 0.666611 0.349453
vt 1.000581 0.349453
vt 0.666611 0.354017
vt 1.000581 0.354017
vt 0.666611 0.358426
vt 1.000581 0.358426
vt 1.000374 0.666936
vt 0.666741 0.666936
vt 0.666741 0.664666
vt 1.000374 0.664666
vt 0.666741 0.661456
vt 1.000374 0.661456
vt 0.666741 0.657525
vt 1.000374 0.657525
vt 0.666741 0.653141
vt 1.000374 0.653141
vt 0.666741 0.648601
vt 1.000374 0.648601
vt 0.666741 0.644216
vt 1.000374 0.644216
vt 1.000523 0.358381
vt 1.000523 0.646287
vt 0.666679 0.646287
vt 0.666679 0.358381
s 0
usemtl Material
f 1/1/1 16/2/1 21/3/1 3/4/1
f 3/4/2 21/3/2 20/5/2 4/6/2
f 4/6/3 20/5/3 19/7/3 5/8/3
f 5/8/4 19/7/4 18/9/4 6/10/4
f 6/10/5 18/9/5 17/11/5 7/12/5
f 7/12/6 17/11/6 15/13/6 2/14/6
f 22/15/7 9/16/7 14/17/7 24/18/7
f 24/18/8 14/17/8 13/19/8 25/20/8
f 25/20/9 13/19/9 12/21/9 26/22/9
f 26/22/10 12/21/10 11/23/10 27/24/10
f 27/24/11 11/23/11 10/25/11 28/26/11
f 28/26/12 10/25/12 8/27/12 23/28/12
f 36/29/13 38/30/13 39/31/13 40/32/13 41/33/13 42/34/13 37/35/13 29/36/13 31/37/13 32/38/13 33/39/13 34/40/13 35/41/13 30/42/13 1/43/13 3/44/13 4/45/13 5/46/13 6/47/13 7/48/13 2/49/13 8/50/13 10/51/13 11/52/13 12/53/13 13/54/13 14/55/13 9/56/13
f 8/57/14 2/58/14 15/59/14 23/60/14
f 1/61/15 30/62/15 43/63/15 16/64/15
f 36/65/16 9/66/16 22/67/16 51/68/16
f 22/69/17 24/70/17 25/71/17 26/72/17 27/73/17 28/74/17 23/75/17 15/76/17 17/77/17 18/78/17 19/79/17 20/80/17 21/81/17 16/82/17 43/83/17 45/84/17 46/85/17 47/86/17 48/87/17 49/88/17 44/89/17 50/90/17 52/91/17 53/92/17 54/93/17 55/94/17 56/95/17 51/96/17
f 64/97/18 79/98/18 84/99/18 66/100/18
f 66/100/19 84/99/19 83/101/19 67/102/19
f 67/102/20 83/101/20 82/103/20 68/104/20
f 68/104/21 82/103/21 81/105/21 69/106/21
f 69/106/22 81/105/22 80/107/22 70/108/22
f 70/108/23 80/107/23 78/109/23 65/110/23
f 71/111/24 58/112/24 63/113/24 73/114/24
f 73/114/25 63/113/25 62/115/25 74/116/25
f 74/116/26 62/115/26 61/117/26 75/118/26
f 75/118/27 61/117/27 60/119/27 76/120/27
f 76/120/28 60/119/28 59/121/28 77/122/28
f 77/122/29 59/121/29 57/123/29 72/124/29
f 78/125/30 72/126/30 57/127/30 65/128/30
