# Blender 5.1.2
# www.blender.org
mtllib neck.mtl
o Cube.001
v -0.632262 -0.443162 0.675430
v -0.632262 0.628282 0.675430
v -0.632262 -0.443162 -0.479743
v -0.632262 0.628282 -0.479743
v 0.594848 -0.443162 0.675430
v 0.594848 0.628282 0.675430
v 0.594848 -0.443162 -0.479743
v 0.594848 0.628282 -0.479743
v -6.306862 4.952065 1.176233
v 1.674835 4.952065 4.595806
v -6.306861 -1.079303 1.176232
v 1.674836 -1.079303 4.595805
vn -1.0000 -0.0000 -0.0000
vn -0.0000 -0.0000 -1.0000
vn 1.0000 -0.0000 -0.0000
vn 0.3938 -0.0000 -0.9192
vt 0.630536 0.337246
vt 0.630536 0.469880
vt 0.664894 0.469880
vt 0.664894 0.337246
vt 0.334082 0.332690
vt 0.665247 0.332690
vt 0.665247 0.663856
vt 0.334082 0.663856
vt 0.002226 0.002336
vt 0.331334 0.002336
vt 0.331334 0.331444
vt 0.002226 0.331444
vt 0.657938 0.323663
vt 0.342062 0.323663
vt 0.342062 0.007787
vt 0.657938 0.007787
s 0
usemtl Material
f 1/1/1 2/2/1 4/3/1 3/4/1
f 3/5/2 4/6/2 8/7/2 7/8/2
f 7/9/3 8/10/3 6/11/3 5/12/3
f 9/13/4 10/14/4 12/15/4 11/16/4
